<?xml version="1.0" standalone="no"?>
<!DOCTYPE svg PUBLIC "-//W3C//DTD SVG 20010904//EN"
 "http://www.w3.org/TR/2001/REC-SVG-20010904/DTD/svg10.dtd">
<svg version="1.0" xmlns="http://www.w3.org/2000/svg"
 width="105.000000pt" height="61.000000pt" viewBox="0 0 105.000000 61.000000"
 preserveAspectRatio="xMidYMid meet">

<g transform="translate(0.000000,61.000000) scale(0.100000,-0.100000)"
fill="#800040" stroke="none">
<path d="M156 348 c-9 -51 -25 -139 -34 -195 l-18 -103 47 0 47 0 14 78 14 77
54 5 c72 7 96 22 111 67 22 66 17 112 -14 139 -25 21 -38 24 -116 24 l-89 0
-16 -92z m142 53 c16 -10 18 -33 8 -86 -9 -46 -31 -75 -58 -75 -14 0 -18 5
-14 18 3 9 10 47 17 85 11 65 19 76 47 58z"/>
<path d="M476 423 c-2 -10 -16 -88 -31 -173 -14 -85 -28 -165 -30 -177 -5 -21
-2 -23 44 -23 l49 0 12 80 c7 44 16 80 20 80 5 0 14 -17 20 -37 38 -121 39
-123 87 -123 25 0 43 4 41 8 -2 4 -16 39 -32 76 l-30 68 32 24 c55 43 70 147
27 189 -22 23 -32 25 -114 25 -77 0 -90 -3 -95 -17z m133 -22 c11 -7 13 -23 8
-66 -6 -61 -27 -95 -59 -95 -16 0 -19 5 -14 28 29 153 30 155 65 133z"/>
<path d="M833 420 c-43 -26 -51 -44 -74 -163 -25 -132 -24 -153 6 -182 21 -22
33 -25 91 -25 77 0 125 23 142 68 16 38 42 187 42 234 0 62 -33 88 -112 88
-45 0 -72 -6 -95 -20z m120 -23 c4 -12 -35 -257 -48 -298 -7 -22 -40 -30 -61
-15 -15 12 -15 23 9 155 14 78 31 149 38 157 14 18 55 18 62 1z"/>
</g>
</svg>
