<?xml version="1.0" standalone="no"?>
<!DOCTYPE svg PUBLIC "-//W3C//DTD SVG 20010904//EN"
 "http://www.w3.org/TR/2001/REC-SVG-20010904/DTD/svg10.dtd">
<svg version="1.0" xmlns="http://www.w3.org/2000/svg"
 width="196.000000pt" height="61.000000pt" viewBox="0 0 196.000000 61.000000"
 preserveAspectRatio="xMidYMid meet">

<g transform="translate(0.000000,61.000000) scale(0.100000,-0.100000)"
fill="#ffffff" stroke="none">
<path d="M145 510 c-23 -11 -48 -32 -57 -48 -9 -15 -30 -107 -47 -206 -18 -98
-33 -183 -34 -190 -1 -7 19 -12 55 -14 65 -3 57 -15 80 113 l13 69 37 3 c21 1
40 -2 43 -7 5 -8 -5 -90 -20 -157 -5 -22 -2 -23 54 -23 57 0 60 1 65 27 11 56
76 430 76 442 0 7 -35 11 -112 11 -93 0 -120 -4 -153 -20z m139 -18 c2 -4 -1
-39 -8 -77 -8 -39 -16 -87 -20 -107 -7 -37 -8 -38 -51 -38 -25 0 -45 4 -45 9
0 12 29 150 36 174 3 10 20 25 37 32 38 17 44 18 51 7z"/>
<path d="M538 509 c-21 -10 -45 -30 -53 -42 -15 -24 -65 -268 -65 -320 0 -66
46 -97 145 -97 80 0 130 21 156 64 33 54 27 66 -34 66 -53 0 -53 0 -63 -37
-12 -49 -55 -76 -80 -51 -15 15 -14 27 11 169 33 192 41 218 71 231 33 16 54
-5 54 -53 l0 -39 45 0 c25 0 48 0 53 0 13 -1 14 41 1 71 -17 42 -56 59 -136
59 -48 -1 -79 -7 -105 -21z"/>
<path d="M820 515 c0 -12 13 -15 60 -15 56 0 60 -2 60 -22 0 -13 -16 -111 -35
-218 -19 -107 -35 -198 -35 -202 0 -5 26 -8 58 -8 l58 0 39 225 39 224 65 3
c40 2 66 8 69 16 3 9 -39 12 -187 12 -163 0 -191 -2 -191 -15z"/>
<path d="M1246 503 c-25 -126 -27 -152 -12 -187 9 -22 26 -41 43 -48 15 -7 29
-13 30 -13 2 -1 -4 -39 -12 -86 -22 -126 -24 -121 37 -117 l52 3 13 70 c6 39
15 85 18 103 4 20 12 32 21 32 29 0 76 35 94 70 18 35 40 132 40 177 0 21 -4
23 -54 23 l-54 0 -17 -97 c-13 -73 -23 -102 -41 -120 -29 -29 -40 -29 -59 1
-15 22 -15 32 -1 113 9 48 16 91 16 96 0 4 -24 7 -54 7 -51 0 -55 -2 -60 -27z"/>
<path d="M1735 523 c-60 -15 -106 -82 -107 -154 -1 -50 14 -66 84 -89 68 -23
92 -54 83 -104 -4 -21 -19 -51 -32 -67 -24 -28 -29 -29 -104 -29 -64 0 -79 -3
-79 -15 0 -23 202 -21 249 3 50 25 74 63 79 124 3 47 1 56 -21 76 -14 13 -47
29 -73 36 -34 8 -53 20 -63 37 -20 37 -6 96 31 131 26 24 38 28 89 28 46 0 59
3 59 15 0 12 -16 15 -87 14 -49 -1 -97 -4 -108 -6z"/>
</g>
</svg>
