<?xml version="1.0" encoding="UTF-8" standalone="no"?>
<svg
   xmlns:dc="http://purl.org/dc/elements/1.1/"
   xmlns:cc="http://creativecommons.org/ns#"
   xmlns:rdf="http://www.w3.org/1999/02/22-rdf-syntax-ns#"
   xmlns:svg="http://www.w3.org/2000/svg"
   xmlns="http://www.w3.org/2000/svg"
   viewBox="0 0 1377.3333 464"
   height="464"
   width="1377.3333"
   xml:space="preserve"
   id="svg2"
   version="1.1"><metadata
     id="metadata8"><rdf:RDF><cc:Work
         rdf:about=""><dc:format>image/svg+xml</dc:format><dc:type
           rdf:resource="http://purl.org/dc/dcmitype/StillImage" /></cc:Work></rdf:RDF></metadata><defs
     id="defs6"><clipPath
       id="clipPath18"
       clipPathUnits="userSpaceOnUse"><path
         id="path16"
         d="M 0,348 H 1033 V 0 H 0 Z" /></clipPath></defs><g
     transform="matrix(1.3333333,0,0,-1.3333333,0,464)"
     id="g10"><g
       id="g12"><g
         clip-path="url(#clipPath18)"
         id="g14"><g
           transform="translate(423.2556,210.1553)"
           id="g20"><path
             id="path22"
             style="fill:#343434;fill-opacity:1;fill-rule:nonzero;stroke:none"
             d="m 0,0 c 0.393,-0.528 0.816,-0.447 1.207,-0.448 2.398,-0.007 4.796,-0.004 7.194,-0.004 6.633,-0.001 13.267,-0.008 19.901,0.005 1.733,0.003 1.736,0.032 2.061,1.788 0.465,2.511 0.93,5.023 1.384,7.536 2.485,13.743 4.97,27.486 7.447,41.23 1.076,5.97 2.099,11.948 3.227,17.908 0.229,1.212 -0.068,1.587 -1.254,1.56 -2.156,-0.048 -4.316,0.033 -6.473,-0.023 C 22.127,69.229 10.979,59.776 8.66,47.412 6.41,35.411 4.236,23.396 2.038,11.386 1.334,7.543 0.661,3.696 0,0 m 27.998,-10.703 c -0.674,0.38 -1.246,0.262 -1.795,0.262 -8.719,0.008 -17.437,0.009 -26.155,0.003 -2.07,-10e-4 -2.052,-0.019 -2.394,-2.007 -2.986,-17.397 -5.981,-34.792 -8.967,-52.188 -0.256,-1.489 0.016,-3.413 -0.977,-4.334 -1.116,-1.036 -3.062,-0.35 -4.64,-0.357 -8.958,-0.038 -17.916,-0.018 -26.874,-0.018 -0.56,0 -1.121,0.023 -1.68,-0.001 -1.136,-0.048 -1.073,0.681 -0.943,1.438 0.35,2.047 0.714,4.092 1.072,6.138 3.145,18.017 6.289,36.034 9.437,54.051 2.983,17.072 5.937,34.15 8.968,51.214 2.486,14.003 10.49,23.929 22.965,30.36 7.066,3.643 14.657,5.458 22.613,5.532 8.318,0.077 16.637,0.035 24.955,0.038 10.878,0.003 21.755,0.001 32.633,0 0.56,0 1.12,-0.018 1.68,-0.003 0.763,0.021 0.972,-0.375 0.846,-1.056 C 78.699,78.133 78.671,77.894 78.63,77.658 75.035,57.044 71.425,36.432 67.849,15.814 63.932,-6.771 60.05,-29.362 56.144,-51.949 c -0.911,-5.273 -1.897,-10.534 -2.749,-15.816 -0.195,-1.203 -0.629,-1.601 -1.83,-1.597 -10.398,0.035 -20.796,0.013 -31.194,0.027 -1.76,0.002 -1.826,0.083 -1.519,1.998 0.833,5.205 1.709,10.403 2.561,15.606 1.846,11.272 3.703,22.542 5.519,33.819 0.389,2.417 0.975,4.815 1.066,7.209" /></g><g
           transform="translate(795.2382,289.2421)"
           id="g24"><path
             id="path26"
             style="fill:#343434;fill-opacity:1;fill-rule:nonzero;stroke:none"
             d="m 0,0 c -0.996,-5.756 -1.99,-11.57 -3.01,-17.379 -1.795,-10.226 -3.677,-20.437 -5.381,-30.678 -0.801,-4.82 -1.107,-9.694 -0.14,-14.556 1.076,-5.414 4.606,-9.608 9.018,-10.048 5.591,-0.558 10.638,0.852 14.485,5.296 1.691,1.955 2.91,4.192 3.922,6.556 1.991,4.65 3.217,9.527 4.23,14.457 2.201,10.72 3.84,21.542 5.773,32.311 0.776,4.324 1.555,8.647 2.277,12.979 0.151,0.904 0.363,1.424 1.437,1.42 10.797,-0.038 21.595,-0.035 32.392,-0.052 0.146,-0.001 0.292,-0.112 0.533,-0.211 -0.098,-2.599 -0.751,-5.148 -1.193,-7.72 -2.028,-11.806 -4.019,-23.621 -6.222,-35.396 -1.696,-9.069 -5.11,-17.464 -10.879,-24.77 -5.702,-7.222 -12.936,-12.044 -22.063,-13.802 -1.883,-0.363 -3.788,-0.677 -5.709,-0.646 -1.138,0.018 -1.464,-0.451 -1.646,-1.512 -1.567,-9.131 -3.199,-18.251 -4.811,-27.374 -2.098,-11.875 -4.207,-23.749 -6.278,-35.63 -0.215,-1.234 -0.716,-1.709 -2.032,-1.702 -9.758,0.052 -19.516,0.021 -29.274,0.035 -1.66,0.003 -1.679,0.048 -1.384,1.751 2.699,15.582 5.407,31.161 8.107,46.743 0.996,5.743 1.976,11.49 2.987,17.375 -1.147,0.522 -2.421,0.498 -3.641,0.673 -3.591,0.517 -7.024,1.517 -10.196,3.3 -7.4,4.159 -11.086,10.798 -12.491,18.909 -1.163,6.713 -0.524,13.378 0.649,20.028 2.207,12.505 4.373,25.018 6.558,37.528 0.082,0.471 0.196,0.938 0.259,1.412 0.103,0.77 0.516,1.116 1.292,1.045 0.238,-0.022 0.48,-0.001 0.72,-0.001 9.998,0.001 19.996,0.002 29.993,-0.004 C -1.169,0.337 -0.591,0.45 0,0" /></g><g
           transform="translate(605.9196,181.2545)"
           id="g28"><path
             id="path30"
             style="fill:#343434;fill-opacity:1;fill-rule:nonzero;stroke:none"
             d="m 0,0 c -0.456,-3.486 -1.403,-6.702 -2.628,-9.82 -6.6,-16.793 -18.795,-26.765 -36.584,-29.879 -2.844,-0.498 -5.716,-0.705 -8.593,-0.727 -6.079,-0.045 -12.159,-0.065 -18.237,0.001 -6.367,0.068 -12.587,1.001 -18.421,3.72 -8.235,3.838 -13.781,9.941 -15.806,18.967 -0.978,4.364 -0.821,8.73 -0.053,13.102 2.835,16.127 5.663,32.255 8.499,48.381 1.744,9.912 3.307,19.86 5.294,29.723 2.903,14.403 11.662,24.234 24.808,30.303 6.156,2.843 12.693,4.387 19.487,4.487 7.757,0.114 15.518,0.106 23.275,0.006 5.658,-0.073 11.101,-1.295 16.184,-3.857 8.453,-4.261 13.358,-11.173 15.06,-20.412 0.878,-4.763 0.715,-9.538 0.111,-14.33 -0.251,-1.995 -0.449,-1.927 -2.199,-1.925 -9.759,0.009 -19.518,0.004 -29.276,0.004 -0.48,0 -0.96,-0.007 -1.44,0.002 -1.922,0.033 -1.948,0.051 -1.663,1.833 0.366,2.288 0.798,4.565 1.127,6.857 0.625,4.358 1.109,8.727 0.763,13.143 -0.07,0.879 -0.22,1.734 -0.43,2.595 -0.76,3.11 -2.688,5.076 -5.781,5.733 -3.792,0.805 -7.618,0.848 -11.412,-0.083 -3.973,-0.974 -6.759,-3.484 -8.781,-6.932 -2.339,-3.989 -3.521,-8.397 -4.337,-12.88 -2.477,-13.594 -4.843,-27.208 -7.245,-40.815 -2.5,-14.158 -4.989,-28.318 -7.491,-42.475 -0.626,-3.543 -1.168,-7.097 -1.483,-10.682 -0.19,-2.161 -0.055,-4.314 0.329,-6.45 0.791,-4.394 3.243,-6.91 7.667,-7.765 2.693,-0.521 5.415,-0.438 8.117,-0.072 4.331,0.588 7.509,2.916 9.764,6.617 2.02,3.316 3.194,6.958 4.176,10.669 1.022,3.861 1.843,7.771 2.473,11.716 0.163,1.023 0.528,1.51 1.679,1.506 C -22.249,0.216 -11.451,0.226 -0.652,0.213 -0.502,0.212 -0.352,0.118 0,0" /></g><g
           transform="translate(218.5695,199.8581)"
           id="g32"><path
             id="path34"
             style="fill:#800040;fill-opacity:1;fill-rule:nonzero;stroke:none"
             d="m 0,0 v 0.014 c 0.88,0 1.762,-0.04 2.639,0.008 2.329,0.129 4.6,0.495 6.694,1.632 2.616,1.422 4.452,3.569 5.955,6.09 2.011,3.372 2.757,7.101 3.408,10.901 1.199,7.006 2.689,13.964 3.757,20.988 0.976,6.422 -2.584,11.857 -8.712,14.027 -2.215,0.784 -4.507,0.993 -6.833,1.098 C 5.688,54.812 5.234,54.37 5.056,53.171 4.573,49.933 3.957,46.715 3.387,43.49 0.942,29.646 -1.509,15.804 -3.948,1.959 -4.273,0.114 -4.197,0.041 -2.399,0.003 -1.6,-0.014 -0.8,0 0,0 m 21.26,-7.458 c 7.006,-17.497 13.913,-34.745 20.815,-51.983 -0.89,-0.441 -1.619,-0.289 -2.323,-0.29 -7.118,-0.013 -14.237,-0.018 -21.355,-0.002 -2.404,0.005 -2.15,-0.36 -2.995,2.111 -5.348,15.641 -10.701,31.28 -16.052,46.92 -0.078,0.227 -0.11,0.475 -0.221,0.683 -0.363,0.684 -0.22,1.822 -1.075,2.012 -1.066,0.236 -2.225,0.135 -3.334,0.058 -0.755,-0.053 -0.647,-0.79 -0.738,-1.314 -0.631,-3.62 -1.261,-7.24 -1.879,-10.862 -2.138,-12.52 -4.263,-25.042 -6.41,-37.56 -0.349,-2.036 -0.388,-2.048 -2.361,-2.05 -8.158,-0.008 -16.316,-0.007 -24.474,0.003 -0.625,10e-4 -1.285,-0.158 -2.015,0.355 0.609,3.614 1.217,7.309 1.857,10.998 2.496,14.403 5.001,28.804 7.505,43.206 2.491,14.323 4.985,28.645 7.476,42.968 1.328,7.633 2.65,15.268 3.981,22.902 0.321,1.839 0.333,1.862 2.278,1.863 13.597,0.007 27.194,0.028 40.791,-0.014 4.59,-0.014 9.057,-0.752 13.317,-2.598 C 44.03,55.621 50.348,45.458 48.967,33.49 48.158,26.489 46.457,19.662 44.673,12.863 43.756,9.371 42.323,6.074 40.311,3.049 36.606,-2.524 31.411,-5.772 24.845,-6.884 23.747,-7.07 22.646,-7.237 21.26,-7.458" /></g><g
           transform="translate(304.2266,159.5888)"
           id="g36"><path
             id="path38"
             style="fill:#800040;fill-opacity:1;fill-rule:nonzero;stroke:none"
             d="m 0,0 c -0.051,-1.848 0.05,-3.679 0.588,-5.462 0.952,-3.155 2.949,-5.32 6.195,-6.051 2.912,-0.655 5.88,-0.654 8.793,0.087 3.72,0.946 5.958,3.561 7.456,6.914 1.611,3.607 2.26,7.475 2.942,11.329 2.335,13.21 4.67,26.42 6.995,39.632 1.951,11.089 3.941,22.171 5.795,33.276 0.524,3.137 0.952,6.328 0.209,9.532 -0.751,3.236 -2.753,5.187 -6.06,5.582 -1.422,0.17 -2.872,0.154 -4.309,0.146 C 23.228,94.956 19.338,92.424 16.695,87.831 15.41,85.598 14.513,83.207 13.949,80.704 12.209,72.988 11.072,65.16 9.675,57.381 6.981,42.369 4.347,27.347 1.733,12.321 1.022,8.235 0.023,4.183 0,0 m 8.42,-19.428 c -3.199,0 -6.4,-0.064 -9.598,0.016 -4.209,0.105 -8.244,1.079 -12.011,2.958 -7.804,3.895 -12.184,10.297 -13.655,18.824 -0.859,4.985 -0.197,9.874 0.677,14.77 2.835,15.885 5.645,31.774 8.494,47.657 0.619,3.455 1.085,6.943 2.149,10.311 4.827,15.278 18.699,26.358 34.714,27.49 7.181,0.508 14.395,0.504 21.577,-0.011 C 55.184,101.552 65.004,91.034 65.381,76.57 65.507,71.719 64.528,67.031 63.698,62.314 61.055,47.288 58.361,32.27 55.704,17.246 54.882,12.599 54.112,7.936 51.979,3.661 44.693,-10.943 32.878,-18.659 16.578,-19.441 c -2.713,-0.13 -5.438,-0.018 -8.158,-0.018 0,0.01 0,0.021 0,0.031" /></g><g
           transform="translate(516.9435,109.9273)"
           id="g40"><path
             id="path42"
             style="fill:#343434;fill-opacity:1;fill-rule:nonzero;stroke:none"
             d="m 0,0 c -166.39,0 -332.78,0 -499.17,0 -3.595,0 -3.595,0 -3.585,3.705 10e-4,0.32 0.034,0.644 -0.004,0.959 -0.157,1.281 0.426,1.731 1.655,1.582 0.552,-0.066 1.119,-0.011 1.679,-0.011 333.02,0 666.04,0 999.06,0 3.34,0 3.364,0 3.333,-3.23 -0.033,-3.458 0.514,-2.998 -3.078,-2.998 C 333.26,-0.001 166.63,0 0,0" /></g><g
           transform="translate(969.6956,289.184)"
           id="g44"><path
             id="path46"
             style="fill:#343434;fill-opacity:1;fill-rule:nonzero;stroke:none"
             d="m 0,0 c -0.474,-2.588 -0.979,-5.31 -1.465,-8.035 -0.106,-0.595 -0.472,-0.767 -1.006,-0.764 -0.56,0.003 -1.12,-0.005 -1.679,-0.005 -7.678,0 -15.357,-0.09 -23.032,0.027 -6.731,0.102 -12.53,-2.22 -17.605,-6.434 -6.512,-5.407 -10.25,-12.575 -12.419,-20.606 -1.189,-4.403 -1.895,-8.909 -1.641,-13.502 0.495,-8.954 7.14,-17.248 17.633,-19.049 4.643,-0.797 9.324,-1.353 13.818,-2.859 2.961,-0.992 5.829,-2.187 8.514,-3.796 10.002,-5.996 14.424,-14.899 13.321,-26.404 -0.517,-5.391 -1.429,-10.771 -3.038,-15.982 -5.042,-16.324 -16.156,-25.974 -32.682,-29.63 -4.31,-0.954 -8.695,-1.313 -13.098,-1.321 -16.794,-0.026 -33.589,-0.012 -50.383,-0.01 -2.371,0.001 -2.376,0.01 -2.001,2.252 0.342,2.048 0.728,4.089 1.029,6.143 0.116,0.789 0.461,1.13 1.242,1.096 0.559,-0.024 1.12,-0.001 1.679,-0.001 11.357,0 22.713,0.068 34.069,-0.02 10.262,-0.08 17.729,4.475 22.767,13.271 3.556,6.21 5.086,13.042 6.218,20.014 0.777,4.783 0.412,9.399 -1.614,13.825 -2.818,6.156 -7.29,10.59 -13.647,13.092 -2.21,0.87 -4.541,0.843 -6.817,1.189 -6.121,0.932 -12.057,2.445 -17.528,5.423 -6.299,3.429 -10.901,8.336 -12.772,15.422 -1.204,4.561 -0.951,9.168 -0.201,13.796 1.186,7.327 3.184,14.367 7.29,20.624 9.443,14.387 22.778,22.185 40.017,22.568 14.468,0.321 28.948,0.073 43.423,0.07 C -1.142,0.394 -0.644,0.512 0,0" /></g><g
           transform="translate(668.5704,280.6996)"
           id="g48"><path
             id="path50"
             style="fill:#343434;fill-opacity:1;fill-rule:nonzero;stroke:none"
             d="m 0,0 h -40.37 c 0.174,2.865 0.886,5.4 1.306,7.98 0.108,0.662 0.507,0.938 1.173,0.906 0.558,-0.027 1.119,-0.002 1.679,-0.002 36.469,0 72.939,0 109.408,0 h 2.635 C 75.384,6.102 74.95,3.545 74.574,0.979 c -0.121,-0.828 -0.573,-1.05 -1.31,-1.022 -0.558,0.022 -1.119,10e-4 -1.679,10e-4 -11.277,0 -22.553,0 -33.83,0 -0.56,0 -1.122,-0.034 -1.679,0.006 C 35.077,0.036 34.713,-0.415 34.549,-1.395 33.65,-6.75 32.674,-12.092 31.73,-17.44 29.217,-31.674 26.7,-45.907 24.197,-60.142 c -2.475,-14.079 -4.933,-28.161 -7.405,-42.241 -2.084,-11.877 -4.175,-23.753 -6.267,-35.628 -0.326,-1.848 -0.336,-1.869 -2.318,-1.87 -10.237,-0.009 -20.474,-0.004 -30.711,-0.004 -0.32,0 -0.641,0.019 -0.96,0.001 -0.9,-0.049 -1.09,0.443 -0.956,1.21 0.358,2.046 0.704,4.093 1.064,6.138 3.173,18.01 6.341,36.021 9.524,54.029 3.127,17.694 6.276,35.384 9.4,53.078 C -2.962,-17.104 -1.528,-8.772 0,0" /></g><g
           transform="translate(119.6033,199.313)"
           id="g52"><path
             id="path54"
             style="fill:#800040;fill-opacity:1;fill-rule:nonzero;stroke:none"
             d="m 0,0 c 1.798,0 3.225,-0.039 4.651,0.006 8.112,0.26 16.065,6.801 17.682,14.743 1.4,6.876 2.629,13.789 3.829,20.704 0.449,2.584 0.909,5.199 0.442,7.853 C 25.245,51.029 19.07,54.964 12.201,55.226 9.838,55.316 9.86,55.319 9.459,53.076 6.963,39.1 4.454,25.126 1.955,11.15 1.311,7.547 0.69,3.94 0,0 m -38.504,-58.833 c 0.703,4.088 1.413,8.249 2.135,12.407 2.32,13.378 4.646,26.755 6.968,40.133 2.322,13.378 4.641,26.756 6.963,40.134 1.516,8.735 3.033,17.47 4.55,26.204 0.082,0.473 0.194,0.944 0.227,1.42 0.089,1.283 0.734,1.683 2.019,1.671 6.477,-0.059 12.955,-0.027 19.433,-0.027 7.038,0 14.075,0.013 21.113,-0.005 4.921,-0.013 9.745,-0.659 14.24,-2.774 C 48.191,56.074 53.06,48.927 53.731,38.928 53.997,34.974 53.266,31.122 52.602,27.265 51.897,23.173 51.095,19.097 50.372,15.008 48.312,3.356 41.106,-3.355 29.952,-6.249 25.824,-7.319 21.59,-7.564 17.346,-7.586 11.828,-7.614 6.309,-7.588 0.791,-7.596 -1.295,-7.599 -1.307,-7.61 -1.638,-9.534 c -2.72,-15.822 -5.436,-31.645 -8.15,-47.468 -0.373,-2.171 -0.365,-2.187 -2.508,-2.189 -8.157,-0.007 -16.314,-0.005 -24.471,0.003 -0.547,0 -1.127,-0.121 -1.737,0.355" /></g><g
           transform="translate(400.373,72.9377)"
           id="g56"><path
             id="path58"
             style="fill:#343434;fill-opacity:1;fill-rule:nonzero;stroke:none"
             d="M 0,0 C 0.039,1.84 -0.19,3.561 -1.02,5.17 -2.151,7.367 -3.962,8.557 -6.403,8.516 -8.966,8.473 -10.772,7.14 -11.696,4.728 -12.795,1.86 -12.819,-1.051 -11.81,-3.94 c 0.813,-2.325 2.504,-3.704 4.954,-3.934 2.443,-0.229 4.334,0.843 5.653,2.894 C -0.218,-3.447 0.078,-1.732 0,0 m 0.189,9.556 c 0.54,3.011 1.405,3.96 3.347,3.924 C 4.983,13.454 5.703,12.925 6.218,11.549 6.562,10.632 6.609,9.68 6.609,8.718 6.607,2.088 6.608,-4.542 6.602,-11.173 c -0.001,-1.039 -0.101,-2.065 -0.293,-3.093 -0.948,-5.072 -3.335,-7.675 -8.374,-8.508 -3.882,-0.641 -7.813,-0.675 -11.555,0.893 -1.788,0.749 -3.431,1.741 -4.331,3.584 -0.961,1.97 -0.135,3.91 1.829,4.333 0.92,0.199 1.753,-0.063 2.494,-0.577 0.388,-0.269 0.752,-0.617 1.021,-1.003 2.103,-3.005 5.059,-3.303 8.323,-2.684 1.996,0.378 3.261,1.485 3.801,3.495 0.467,1.737 0.303,3.483 0.405,5.222 -0.806,0.264 -1.002,-0.431 -1.37,-0.755 -4.832,-4.261 -12.283,-3.287 -15.538,2.286 -2.969,5.081 -3.199,10.537 -0.621,15.834 2.929,6.02 11.014,7.501 16.158,3.171 0.479,-0.403 0.934,-0.835 1.638,-1.469" /></g><g
           transform="translate(854.6912,72.8822)"
           id="g60"><path
             id="path62"
             style="fill:#343434;fill-opacity:1;fill-rule:nonzero;stroke:none"
             d="m 0,0 c -0.019,-1.939 0.249,-3.818 1.29,-5.501 2.357,-3.815 7.686,-3.849 9.813,0.08 1.936,3.578 1.865,7.358 -0.033,10.974 C 10.037,7.521 8.246,8.626 5.999,8.569 3.647,8.509 2.011,7.215 0.976,5.103 0.181,3.481 0.01,1.76 0,0 m 12.741,9.958 c 0,2.954 0,5.486 0,8.018 0,0.958 -0.013,1.912 0.253,2.852 0.499,1.767 1.348,2.469 3.039,2.45 1.678,-0.019 2.598,-0.773 2.937,-2.538 0.149,-0.777 0.183,-1.586 0.184,-2.38 0.012,-8.945 0.011,-17.891 0.002,-26.836 -10e-4,-0.716 -0.02,-1.442 -0.136,-2.145 -0.301,-1.812 -1.185,-2.685 -2.738,-2.805 -1.638,-0.127 -2.622,0.531 -3.251,2.202 -0.167,0.442 -0.28,0.904 -0.418,1.357 -0.863,-0.135 -1.229,-0.821 -1.768,-1.252 -5.043,-4.033 -12.101,-2.951 -15.347,2.619 -3.055,5.241 -3.204,10.865 -0.656,16.316 2.643,5.655 10.151,7.484 15.389,4.027 0.724,-0.478 1.391,-1.04 2.51,-1.885" /></g><g
           transform="translate(487.7181,73.0528)"
           id="g64"><path
             id="path66"
             style="fill:#343434;fill-opacity:1;fill-rule:nonzero;stroke:none"
             d="m 0,0 c 0.069,1.689 -0.169,3.4 -0.977,5.012 -1.006,2.006 -2.576,3.281 -4.832,3.381 -2.229,0.098 -4.125,-0.868 -5.192,-2.818 -2.005,-3.667 -2.025,-7.484 -0.039,-11.17 1.055,-1.959 2.913,-2.97 5.146,-2.902 2.26,0.068 3.844,1.327 4.867,3.325 C -0.207,-3.569 0.058,-1.86 0,0 m -12.684,-9.657 c 0,-3.123 -0.006,-5.662 0.002,-8.2 0.003,-0.961 -0.02,-1.915 -0.264,-2.853 -0.48,-1.854 -1.389,-2.561 -3.232,-2.497 -1.75,0.062 -2.396,0.665 -2.722,2.681 -0.139,0.862 -0.202,1.746 -0.203,2.62 -0.014,8.785 -0.007,17.57 -0.012,26.354 0,0.881 0.008,1.758 0.245,2.614 0.401,1.454 1.288,2.21 2.688,2.301 1.367,0.09 2.546,-0.573 3.083,-1.818 0.249,-0.576 0.368,-1.208 0.549,-1.823 0.78,0.061 1.054,0.713 1.508,1.1 4.444,3.792 11.023,3.245 14.766,-1.248 C 7.829,4.645 7.781,-4.915 3.717,-9.9 c -3.695,-4.531 -11.069,-4.966 -14.755,-1.256 -0.38,0.383 -0.797,0.728 -1.646,1.499" /></g><g
           transform="translate(178.5595,82.9456)"
           id="g68"><path
             id="path70"
             style="fill:#343434;fill-opacity:1;fill-rule:nonzero;stroke:none"
             d="m 0,0 c 2.269,2.325 4.81,3.472 7.842,3.452 4.765,-0.031 8.045,-2.881 8.535,-7.638 0.534,-5.181 0.172,-10.385 0.192,-15.579 0.003,-0.623 -0.169,-1.28 -0.402,-1.865 -0.552,-1.391 -1.864,-2.041 -3.526,-1.844 -1.402,0.166 -2.299,0.964 -2.575,2.424 -0.132,0.7 -0.131,1.432 -0.134,2.149 -0.015,3.279 0.003,6.557 -0.018,9.836 -0.005,0.876 -0.053,1.759 -0.171,2.627 -0.476,3.511 -1.562,4.684 -4.271,4.688 -2.834,0.004 -5.166,-2.022 -5.521,-4.963 -0.219,-1.821 -0.266,-3.666 -0.306,-5.503 -0.057,-2.637 0.049,-5.28 -0.074,-7.914 -0.113,-2.421 -1.463,-3.533 -3.713,-3.368 -1.362,0.1 -2.232,0.788 -2.619,2.074 -0.303,1.004 -0.339,2.042 -0.337,3.088 0.009,8.796 0.004,17.591 0.007,26.387 0,0.56 -0.011,1.124 0.053,1.677 0.287,2.462 1.338,3.522 3.411,3.481 C -1.56,13.168 -0.488,12.033 -0.4,9.576 -0.316,7.26 -0.391,4.938 -0.356,2.62 -0.344,1.844 -0.555,1.036 0,0" /></g><g
           transform="translate(324.2734,72.6537)"
           id="g72"><path
             id="path74"
             style="fill:#343434;fill-opacity:1;fill-rule:nonzero;stroke:none"
             d="m 0,0 c -2.837,-0.704 -5.571,-1.272 -8.233,-2.079 -1.891,-0.573 -2.735,-2.021 -2.489,-3.605 0.26,-1.672 1.65,-2.91 3.481,-3.101 3.741,-0.391 6.775,1.939 7.294,5.647 C 0.184,-2.199 0.283,-1.24 0,0 m 0.541,-9.676 c -3.219,-2.477 -6.605,-3.883 -10.582,-3.519 -1.469,0.135 -2.822,0.537 -4.05,1.33 -4.802,3.104 -4.457,9.984 0.624,12.599 1.735,0.893 3.666,1.07 5.527,1.499 2.177,0.503 4.37,0.94 6.539,1.474 1.689,0.415 1.761,0.611 1.304,2.328 -0.547,2.058 -1.376,2.74 -3.523,2.961 -3.206,0.33 -5.802,-0.506 -7.508,-3.504 -0.865,-1.52 -2.261,-1.86 -3.649,-1.236 -1.222,0.55 -1.755,1.818 -1.349,3.466 0.539,2.183 2.057,3.566 3.993,4.512 3.197,1.563 6.628,1.758 10.077,1.401 6.399,-0.662 8.668,-3.186 8.846,-9.634 0.038,-1.358 0,-2.718 0.001,-4.077 0.004,-3.11 -0.141,-6.197 0.903,-9.251 0.756,-2.212 -0.93,-4.055 -3.132,-3.869 -0.868,0.073 -1.499,0.532 -2.04,1.132 -0.635,0.705 -1.215,1.459 -1.981,2.388" /></g><g
           transform="translate(515.7725,72.589)"
           id="g76"><path
             id="path78"
             style="fill:#343434;fill-opacity:1;fill-rule:nonzero;stroke:none"
             d="m 0,0 c -2.408,-0.549 -4.799,-1.088 -7.186,-1.642 -0.388,-0.09 -0.77,-0.221 -1.136,-0.376 -1.693,-0.716 -2.57,-1.994 -2.403,-3.472 0.189,-1.667 1.572,-2.987 3.375,-3.22 3.686,-0.476 6.845,1.85 7.404,5.508 C 0.208,-2.19 0.347,-1.15 0,0 m 0.647,-9.693 c -1.157,-0.699 -2.163,-1.332 -3.193,-1.922 -2.609,-1.493 -5.442,-1.807 -8.355,-1.399 -3.604,0.505 -6.294,3.396 -6.569,6.919 -0.257,3.303 1.799,6.365 5.293,7.387 2.827,0.826 5.755,1.31 8.637,1.948 0.468,0.103 0.955,0.164 1.393,0.342 0.811,0.329 2.07,-0.017 2.271,1.275 0.212,1.358 -0.861,3.233 -2.038,3.788 -2.706,1.276 -6.645,0.32 -8.446,-2.059 -0.337,-0.446 -0.617,-0.934 -0.956,-1.378 -0.845,-1.107 -2.114,-1.454 -3.372,-0.907 -1.178,0.511 -1.62,1.455 -1.524,2.705 0.154,1.997 1.257,3.403 2.808,4.521 2.011,1.451 4.349,1.975 6.75,2.21 2.398,0.235 4.796,0.084 7.154,-0.435 3.509,-0.771 5.326,-2.753 5.991,-6.31 0.52,-2.781 0.319,-5.58 0.298,-8.372 -0.02,-2.568 0.064,-5.088 0.866,-7.575 0.623,-1.932 0.084,-3.148 -1.367,-3.88 -1.288,-0.651 -2.657,-0.336 -3.862,0.958 -0.594,0.638 -1.106,1.351 -1.779,2.184" /></g><g
           transform="translate(207.3945,75.0455)"
           id="g80"><path
             id="path82"
             style="fill:#343434;fill-opacity:1;fill-rule:nonzero;stroke:none"
             d="m 0,0 c 1.731,0 3.473,-0.001 5.214,0 1.754,0.001 3.509,0.002 5.263,0.006 0.518,0.001 0.897,0.113 0.928,0.775 C 11.524,3.389 9.239,6.177 6.617,6.574 2.713,7.165 -0.164,4.394 0,0 m -0.241,-3.925 c 0.026,-3.027 0.981,-5.325 3.507,-6.603 2.593,-1.313 5.134,-0.814 7.425,0.883 0.959,0.71 1.8,1.577 2.728,2.333 1.165,0.951 2.303,1.054 3.288,0.36 0.962,-0.679 1.172,-1.793 0.473,-3.227 -1.501,-3.081 -4.292,-4.445 -7.407,-5.124 -2.503,-0.545 -5.086,-0.518 -7.605,0.103 -5.635,1.39 -8.957,5.615 -9.372,11.824 -0.129,1.933 0.068,3.839 0.56,5.696 1.721,6.49 7.899,10.12 14.918,8.812 5.364,-0.999 8.805,-4.457 9.574,-9.623 0.55,-3.693 -0.659,-5.239 -4.449,-5.393 -2.95,-0.12 -5.909,-0.036 -8.864,-0.04 -1.51,-0.003 -3.021,-10e-4 -4.776,-10e-4" /></g><g
           transform="translate(604.8191,75.2546)"
           id="g84"><path
             id="path86"
             style="fill:#343434;fill-opacity:1;fill-rule:nonzero;stroke:none"
             d="m 0,0 c 0.586,-0.357 1.238,-0.197 1.86,-0.201 2.791,-0.018 5.582,-0.013 8.373,-0.001 0.529,0.002 1.135,-0.119 1.188,0.753 C 11.577,3.117 9.269,5.957 6.654,6.363 2.755,6.969 -0.112,4.23 0,0 m -0.213,-4.349 c -0.034,-2.623 0.85,-4.834 3.183,-6.214 2.345,-1.386 4.774,-1.145 7.036,0.253 1.076,0.665 2.004,1.573 2.981,2.393 0.488,0.41 0.922,0.875 1.563,1.073 0.93,0.287 1.764,0.08 2.437,-0.559 0.621,-0.589 0.786,-1.366 0.515,-2.206 -0.35,-1.083 -0.921,-2.026 -1.73,-2.831 -1.333,-1.328 -2.929,-2.229 -4.713,-2.737 -3.465,-0.985 -6.969,-1.012 -10.362,0.213 -5.108,1.843 -7.308,5.882 -7.849,11.022 -0.228,2.166 0.016,4.306 0.642,6.393 1.884,6.282 7.849,9.729 14.685,8.501 C 13.556,9.985 17.047,6.543 17.843,1.418 18.438,-2.407 17.211,-3.98 13.295,-4.097 9.624,-4.206 5.948,-4.119 2.275,-4.141 1.487,-4.146 0.68,-3.992 -0.213,-4.349" /></g><g
           transform="translate(672.1459,67.3798)"
           id="g88"><path
             id="path90"
             style="fill:#343434;fill-opacity:1;fill-rule:nonzero;stroke:none"
             d="m 0,0 c 0.882,0.64 0.912,1.594 1.201,2.392 1.491,4.124 2.912,8.274 4.387,12.404 0.348,0.973 0.718,1.958 1.237,2.845 0.787,1.346 2.12,1.712 3.51,1.123 1.367,-0.58 2.069,-1.815 1.744,-3.269 C 11.854,14.487 11.548,13.488 11.18,12.521 8.313,4.994 5.439,-2.53 2.526,-10.039 2.009,-11.373 1.382,-12.68 0.662,-13.916 c -1.248,-2.146 -3.188,-3.297 -5.659,-3.534 -1.515,-0.146 -3.031,-0.113 -4.547,0.024 -0.811,0.073 -1.578,0.296 -2.25,0.743 -1.013,0.672 -1.097,1.701 -0.917,2.776 0.169,1.003 0.892,1.495 1.809,1.666 0.538,0.101 1.13,0.113 1.664,0.003 1.576,-0.326 3.151,-0.4 4.061,1.148 1.056,1.797 2.291,3.483 1.216,5.953 -2.513,5.775 -4.728,11.679 -7.055,17.534 -0.354,0.889 -0.739,1.777 -0.969,2.7 -0.387,1.554 0.45,3 1.988,3.643 1.472,0.615 2.806,0.194 3.718,-1.199 C -5.66,16.596 -5.35,15.515 -4.986,14.46 -3.328,9.655 -1.672,4.849 0,0" /></g><g
           transform="translate(359.5326,75.0527)"
           id="g92"><path
             id="path94"
             style="fill:#343434;fill-opacity:1;fill-rule:nonzero;stroke:none"
             d="m 0,0 c 3.656,0 7.158,0.002 10.66,-0.002 0.698,0 0.956,0.289 0.933,1.022 C 11.509,3.639 9.573,6.053 7.095,6.536 4.334,7.074 1.992,5.898 0.795,3.357 0.353,2.419 0.046,1.442 0,0 m -0.072,-3.93 c 0.166,-2.975 1.049,-5.325 3.582,-6.601 2.59,-1.305 5.133,-0.838 7.426,0.872 0.957,0.714 1.807,1.568 2.732,2.328 1.158,0.952 2.303,1.074 3.296,0.398 0.884,-0.602 1.104,-1.908 0.484,-3.263 -0.798,-1.744 -2.164,-2.983 -3.842,-3.806 -4.572,-2.243 -9.255,-2.266 -13.879,-0.238 -3.013,1.321 -4.913,3.789 -5.909,6.883 -0.948,2.947 -1.023,5.999 -0.335,8.996 2.103,9.158 13.396,12.954 20.703,6.987 2.622,-2.142 3.952,-4.967 4.015,-8.349 0.047,-2.569 -0.684,-3.422 -3.158,-3.998 C 14.094,-3.942 13.141,-3.926 12.184,-3.928 8.198,-3.934 4.211,-3.93 -0.072,-3.93" /></g><g
           transform="translate(796.3901,75.0455)"
           id="g96"><path
             id="path98"
             style="fill:#343434;fill-opacity:1;fill-rule:nonzero;stroke:none"
             d="M 0,0 C 2.061,0 3.969,-0.021 5.876,0.006 7.743,0.033 9.625,-0.126 11.472,0.123 11.264,4.315 9.339,6.524 6.027,6.625 2.555,6.731 0.497,4.572 0,0 m -0.152,-3.923 c 0.257,-3.169 1.202,-5.557 3.926,-6.747 2.669,-1.166 5.161,-0.53 7.391,1.226 0.876,0.69 1.663,1.494 2.532,2.196 1.122,0.905 2.35,0.972 3.297,0.25 0.777,-0.592 1.005,-1.852 0.458,-3.082 -0.777,-1.747 -2.118,-3.023 -3.792,-3.857 -4.728,-2.356 -9.552,-2.369 -14.304,-0.135 -2.808,1.32 -4.623,3.676 -5.544,6.607 -1.13,3.595 -1.139,7.253 0.101,10.83 2.05,5.916 8.035,9.025 14.711,7.731 C 14.383,9.98 18.209,5.594 18.154,0.17 18.129,-2.279 17.458,-3.096 15.108,-3.684 14.081,-3.94 13.049,-3.919 12.013,-3.921 8.03,-3.928 4.047,-3.923 -0.152,-3.923" /></g><g
           transform="translate(825.7516,75.0509)"
           id="g100"><path
             id="path102"
             style="fill:#343434;fill-opacity:1;fill-rule:nonzero;stroke:none"
             d="m 0,0 c 3.497,0 6.991,0.002 10.485,-0.002 0.671,-0.001 1.03,0.231 0.966,0.987 C 11.231,3.604 9.584,6.488 6.042,6.622 2.455,6.757 0.152,4.323 0,0 m -0.207,-4.185 c 0.148,-2.664 1.014,-5.009 3.515,-6.314 2.476,-1.293 4.97,-0.936 7.228,0.674 1.035,0.738 1.954,1.639 2.939,2.45 1.237,1.02 2.486,1.132 3.477,0.335 0.82,-0.66 0.967,-1.946 0.27,-3.297 -1.522,-2.947 -4.229,-4.287 -7.264,-4.959 -2.508,-0.554 -5.088,-0.52 -7.608,0.073 -5.034,1.184 -8.022,4.454 -9.066,9.42 -0.613,2.912 -0.549,5.896 0.394,8.766 1.442,4.383 4.418,7.115 8.982,8.019 4.853,0.96 9.25,0.165 12.706,-3.639 1.83,-2.014 2.733,-4.476 2.704,-7.232 -0.027,-2.427 -0.715,-3.238 -3.096,-3.812 -0.868,-0.21 -1.739,-0.224 -2.616,-0.225 -3.355,-0.005 -6.71,0.008 -10.065,-0.013 -0.786,-0.004 -1.596,0.163 -2.5,-0.246" /></g><g
           transform="translate(149.8472,76.0211)"
           id="g104"><path
             id="path106"
             style="fill:#343434;fill-opacity:1;fill-rule:nonzero;stroke:none"
             d="m 0,0 c 0,3.834 0.008,7.668 -0.004,11.502 -0.006,2.103 -0.022,2.107 -2.045,2.129 -2.156,0.023 -4.316,-0.033 -6.467,0.08 -1.646,0.087 -2.493,0.859 -2.758,2.172 -0.328,1.627 0.352,2.772 1.94,3.368 0.778,0.291 1.572,0.242 2.366,0.242 7.109,0.006 14.218,0.008 21.326,-0.003 0.715,-0.002 1.452,-0.002 2.138,-0.171 1.561,-0.383 2.322,-1.444 2.253,-2.946 C 18.681,14.9 17.812,13.896 16.166,13.75 14.421,13.595 12.656,13.665 10.9,13.631 6.84,13.553 7.363,14.266 7.345,10.103 7.316,3.154 7.333,-3.795 7.341,-10.744 c 10e-4,-1.122 0.002,-2.246 -0.283,-3.333 -0.407,-1.549 -1.527,-2.414 -3.113,-2.497 -1.73,-0.09 -3.011,0.69 -3.552,2.239 -0.345,0.988 -0.404,2.025 -0.4,3.073 C 0.011,-7.508 0,-3.754 0,0" /></g><g
           transform="translate(766.9324,82.4008)"
           id="g108"><path
             id="path110"
             style="fill:#343434;fill-opacity:1;fill-rule:nonzero;stroke:none"
             d="m 0,0 c 2.448,2.747 5.099,4.028 8.335,3.998 5.03,-0.046 8.284,-3.024 8.635,-8.039 0.347,-4.949 0.183,-9.91 0.119,-14.864 -0.034,-2.722 -1.11,-3.95 -3.115,-4.044 -1.686,-0.08 -2.969,0.811 -3.33,2.46 -0.186,0.849 -0.202,1.746 -0.209,2.622 -0.024,3.037 0.008,6.075 -0.02,9.113 -0.011,1.116 -0.085,2.237 -0.21,3.346 -0.183,1.628 -0.54,3.221 -2.315,3.876 -1.956,0.723 -3.794,0.377 -5.388,-0.953 -1.211,-1.01 -1.846,-2.339 -2.05,-3.932 -0.479,-3.748 -0.184,-7.507 -0.28,-11.259 -0.023,-0.878 0.019,-1.771 -0.128,-2.63 -0.274,-1.608 -1.383,-2.542 -2.947,-2.636 -1.647,-0.1 -2.736,0.617 -3.306,2.179 -0.306,0.84 -0.351,1.712 -0.349,2.598 0.009,5.836 -0.002,11.672 0.013,17.508 0.002,0.713 0.043,1.444 0.202,2.135 0.374,1.62 1.327,2.435 2.783,2.507 1.423,0.072 2.541,-0.683 3.109,-2.15 C -0.285,1.408 -0.226,0.94 0,0" /></g><g
           transform="translate(735.2298,63.6421)"
           id="g112"><path
             id="path114"
             style="fill:#343434;fill-opacity:1;fill-rule:nonzero;stroke:none"
             d="m 0,0 c -2.438,-2.762 -5.16,-4.059 -8.48,-4.037 -4.7,0.031 -7.638,2.556 -8.369,7.182 -0.441,2.786 -0.178,5.587 -0.234,8.381 -0.044,2.158 -0.005,4.317 -0.01,6.476 -0.002,0.803 0.029,1.595 0.279,2.37 0.506,1.573 1.621,2.416 3.183,2.376 1.633,-0.042 2.868,-1.073 3.154,-2.731 0.121,-0.703 0.106,-1.434 0.109,-2.152 0.011,-3.039 0.027,-6.078 -0.003,-9.116 -0.013,-1.369 0.124,-2.721 0.393,-4.051 0.591,-2.924 2.956,-4.272 5.763,-3.254 2.297,0.832 3.668,2.439 3.887,4.965 0.326,3.753 0.205,7.511 0.249,11.268 0.01,0.876 0.009,1.773 0.191,2.622 0.329,1.525 1.589,2.446 3.132,2.452 1.563,0.005 2.759,-0.885 3.103,-2.458 0.186,-0.851 0.234,-1.745 0.237,-2.619 0.02,-5.598 0.02,-11.195 0,-16.793 C 6.581,0.007 6.534,-0.887 6.349,-1.737 6.042,-3.148 5.015,-3.967 3.66,-4.056 2.318,-4.144 1.162,-3.456 0.624,-2.164 0.382,-1.584 0.268,-0.952 0,0" /></g><g
           transform="translate(693.5634,72.9281)"
           id="g116"><path
             id="path118"
             style="fill:#343434;fill-opacity:1;fill-rule:nonzero;stroke:none"
             d="m 0,0 c -0.084,-1.8 0.228,-3.604 1.075,-5.264 1.053,-2.064 2.714,-3.284 5.12,-3.337 2.47,-0.056 4.372,0.958 5.46,3.159 1.767,3.575 1.739,7.241 0.005,10.816 C 10.58,7.601 8.593,8.602 6.18,8.526 3.852,8.453 2.09,7.294 1.065,5.162 0.294,3.559 -0.054,1.85 0,0 m 6.291,-13.487 c -7.593,0.033 -12.823,5.126 -13.007,12.699 -0.027,1.115 -0.04,2.254 0.146,3.346 0.808,4.738 3.148,8.379 7.858,10.006 4.913,1.697 9.691,1.313 13.81,-2.043 4.032,-3.286 5.038,-7.877 4.359,-12.788 -1,-7.239 -5.845,-11.251 -13.166,-11.22" /></g><g
           transform="translate(575.1978,82.4497)"
           id="g120"><path
             id="path122"
             style="fill:#343434;fill-opacity:1;fill-rule:nonzero;stroke:none"
             d="m 0,0 c 2.401,2.703 5.12,4.008 8.443,3.946 4.964,-0.092 8.375,-3.205 8.553,-8.168 0.179,-5.031 0.108,-10.074 0.056,-15.111 -0.023,-2.169 -1.077,-3.411 -2.757,-3.638 -2.116,-0.286 -3.644,0.943 -3.858,3.263 -0.132,1.428 -0.054,2.876 -0.058,4.315 -0.006,2.559 0.02,5.119 -0.016,7.677 C 10.35,-6.762 10.301,-5.79 10.1,-4.862 9.366,-1.457 6.389,-0.16 3.352,-1.919 1.306,-3.105 0.367,-5.002 0.317,-7.305 0.239,-10.902 0.25,-14.501 0.222,-18.099 c -0.007,-0.877 0.026,-1.751 -0.282,-2.606 -0.576,-1.598 -1.587,-2.339 -3.235,-2.297 -1.552,0.04 -2.699,0.949 -3.06,2.53 -0.14,0.615 -0.142,1.27 -0.143,1.908 -0.01,6.077 -0.007,12.154 -0.004,18.232 10e-4,0.479 -0.004,0.964 0.061,1.436 0.218,1.595 1.114,2.579 2.513,2.806 1.45,0.236 2.78,-0.539 3.405,-2.041 C -0.312,1.361 -0.22,0.802 0,0" /></g><g
           transform="translate(253.1356,59.4498)"
           id="g124"><path
             id="path126"
             style="fill:#343434;fill-opacity:1;fill-rule:nonzero;stroke:none"
             d="m 0,0 c -2.537,-0.111 -5.111,0.336 -7.457,1.716 -1.709,1.005 -3.013,2.362 -3.479,4.374 -0.359,1.553 0.169,2.905 1.372,3.474 1.243,0.588 2.638,0.189 3.568,-1.056 0.477,-0.639 0.852,-1.36 1.366,-1.965 1.783,-2.098 5.165,-2.829 7.674,-1.693 1.062,0.48 1.96,1.13 2.012,2.436 0.054,1.378 -0.688,2.313 -1.898,2.769 -1.565,0.589 -3.178,1.059 -4.79,1.51 -1.849,0.517 -3.688,1.049 -5.391,1.955 -5.625,2.993 -4.35,9.193 -0.353,11.661 1.315,0.812 2.731,1.302 4.246,1.544 3.318,0.53 6.536,0.188 9.612,-1.18 1.488,-0.661 2.755,-1.623 3.467,-3.16 0.621,-1.341 0.487,-2.48 -0.382,-3.316 C 8.648,18.186 6.94,18.05 5.785,18.793 c -0.89,0.573 -1.454,1.473 -2.174,2.218 -1.677,1.737 -4.242,2.229 -6.392,1.272 -0.921,-0.41 -1.681,-0.956 -1.764,-2.062 -0.085,-1.136 0.638,-1.793 1.537,-2.207 0.937,-0.432 1.933,-0.751 2.926,-1.042 C 1.219,16.59 2.547,16.3 3.856,15.941 5.167,15.581 6.445,15.12 7.644,14.471 9.961,13.215 11.642,11.447 11.631,8.659 11.619,5.678 10.472,3.208 7.786,1.655 5.424,0.29 2.828,-0.052 0,0" /></g><g
           transform="translate(438.8289,59.6072)"
           id="g128"><path
             id="path130"
             style="fill:#343434;fill-opacity:1;fill-rule:nonzero;stroke:none"
             d="m 0,0 c -9.708,-0.026 -14.136,7.043 -12.91,15.581 1.419,9.876 12.293,14.559 20.675,9.043 1.769,-1.165 3.262,-2.61 3.7,-4.801 0.434,-2.174 -1.119,-3.839 -3.246,-3.6 -0.884,0.1 -1.435,0.638 -1.947,1.262 -0.657,0.802 -1.227,1.69 -1.961,2.411 -2.795,2.747 -7.304,2.26 -9.248,-1.146 C -6.98,15.171 -7,11.379 -4.956,7.788 -3.024,4.396 1.724,3.943 4.55,6.69 5.424,7.539 5.931,8.641 6.657,9.588 7.697,10.945 8.94,11.336 10.192,10.76 11.414,10.198 12.094,8.877 11.849,7.364 11.54,5.448 10.409,4.023 8.955,2.826 6.732,0.997 3.572,0.008 0,0" /></g><g
           transform="translate(277.9041,80.6136)"
           id="g132"><path
             id="path134"
             style="fill:#343434;fill-opacity:1;fill-rule:nonzero;stroke:none"
             d="m 0,0 c 0,-4.637 -0.057,-9.098 0.025,-13.557 0.038,-2.064 0.87,-2.642 2.923,-2.407 0.634,0.073 1.265,0.172 1.9,0.232 1.073,0.102 1.92,-0.304 2.289,-1.328 0.382,-1.06 0.167,-2.051 -0.75,-2.805 -0.183,-0.151 -0.379,-0.309 -0.596,-0.396 -3.167,-1.265 -6.383,-1.357 -9.551,-0.115 -1.306,0.513 -2.112,1.672 -2.483,3.059 -0.395,1.475 -0.512,2.981 -0.507,4.506 0.015,4.224 0.005,8.448 0.005,12.579 -0.676,0.527 -1.36,0.267 -1.951,0.49 -1.227,0.463 -1.939,1.364 -1.832,2.492 0.112,1.179 0.82,1.837 1.937,2.141 1.834,0.499 1.83,0.512 1.841,2.413 0.008,1.198 -0.024,2.398 0.039,3.592 0.125,2.394 1.25,3.651 3.219,3.683 2.056,0.034 3.298,-1.291 3.418,-3.761 C 0,9.304 -0.013,7.784 -0.049,6.268 -0.07,5.374 0.214,4.923 1.175,4.982 1.809,5.022 2.458,5.012 3.086,4.921 4.398,4.731 5.161,3.93 5.221,2.743 5.282,1.534 4.669,0.843 3.543,0.446 2.456,0.062 1.331,0.192 0,0" /></g><g
           transform="translate(337.3942,80.5433)"
           id="g136"><path
             id="path138"
             style="fill:#343434;fill-opacity:1;fill-rule:nonzero;stroke:none"
             d="m 0,0 c -0.753,0.134 -1.386,0.178 -1.972,0.365 -1.256,0.4 -1.93,1.353 -1.802,2.492 0.131,1.175 0.843,2.062 1.97,2.056 1.749,-0.01 1.891,0.905 1.822,2.26 -0.069,1.353 -0.055,2.718 0.039,4.069 0.153,2.201 1.335,3.394 3.237,3.407 1.897,0.014 3.185,-1.183 3.347,-3.321 C 6.768,9.66 6.73,7.977 6.7,6.301 6.683,5.376 7.038,4.999 7.962,5.052 8.596,5.089 9.246,5.081 9.872,4.986 11.176,4.788 11.931,3.969 11.974,2.777 12.018,1.564 11.404,0.822 10.251,0.527 9.713,0.389 9.165,0.274 8.614,0.206 8.067,0.139 7.511,0.144 6.985,0.119 6.522,-0.592 6.726,-1.33 6.723,-2.028 6.707,-5.7 6.682,-9.374 6.747,-13.045 c 0.045,-2.543 0.768,-3.111 3.222,-2.797 0.554,0.071 1.109,0.134 1.665,0.182 1.082,0.093 1.914,-0.339 2.267,-1.363 0.366,-1.064 0.084,-2.001 -0.778,-2.81 -1.649,-1.546 -9.284,-1.996 -11.345,0.353 -1.374,1.565 -1.683,3.422 -1.723,5.34 C -0.027,-10.23 0.011,-6.317 0,-2.405 -0.002,-1.614 0,-0.823 0,0" /></g><g
           transform="translate(552.4331,72.7613)"
           id="g140"><path
             id="path142"
             style="fill:#343434;fill-opacity:1;fill-rule:nonzero;stroke:none"
             d="m 0,0 c 0,2.236 -0.04,4.472 0.019,6.706 0.024,0.915 -0.247,1.342 -1.188,1.278 -0.232,-0.016 -0.48,0.042 -0.704,0.114 -1.246,0.397 -1.96,1.316 -1.913,2.434 0.048,1.15 0.74,2.108 2.116,2.179 1.603,0.082 1.756,0.859 1.692,2.136 -0.072,1.432 -0.063,2.878 0.048,4.308 0.16,2.057 1.326,3.216 3.118,3.277 1.902,0.064 3.264,-1.118 3.444,-3.215 0.142,-1.665 0.112,-3.351 0.065,-5.025 -0.03,-1.051 0.372,-1.438 1.398,-1.361 0.632,0.047 1.283,0.016 1.909,-0.081 1.169,-0.18 1.843,-0.914 1.957,-2.084 C 12.077,9.468 11.501,8.712 10.36,8.326 9.511,8.04 8.647,7.917 7.767,7.968 6.899,8.019 6.699,7.598 6.705,6.82 6.738,2.669 6.68,-1.484 6.771,-5.634 c 0.048,-2.182 0.848,-2.72 3.093,-2.445 0.633,0.078 1.267,0.155 1.903,0.201 0.988,0.072 1.743,-0.36 2.093,-1.265 0.407,-1.05 0.22,-2.03 -0.664,-2.826 -2.247,-2.022 -9.396,-1.795 -11.49,0.382 -1.312,1.365 -1.559,3.126 -1.632,4.882 C -0.02,-4.473 0.051,-2.235 0.051,0 0.034,0 0.017,0 0,0" /></g><g
           transform="translate(634.8354,82.6494)"
           id="g144"><path
             id="path146"
             style="fill:#343434;fill-opacity:1;fill-rule:nonzero;stroke:none"
             d="M 0,0 C 0.28,0.531 0.405,0.834 0.585,1.101 3.057,4.742 6.961,4.023 9.531,2.675 11.258,1.768 11.842,0.41 11.263,-1.044 10.684,-2.496 9.421,-2.977 7.497,-2.478 2.836,-1.271 1.169,-2.269 0.365,-7.014 c -0.548,-3.237 -0.326,-6.531 -0.368,-9.803 -0.015,-1.115 0.015,-2.244 -0.15,-3.34 -0.316,-2.092 -1.459,-3.076 -3.324,-3.045 -1.84,0.03 -2.944,1.132 -3.164,3.205 -0.067,0.633 -0.062,1.276 -0.062,1.914 -0.005,5.43 -0.008,10.86 0.003,16.29 0.002,0.877 0.009,1.763 0.134,2.628 0.251,1.731 1.212,2.71 2.709,2.893 1.534,0.187 2.624,-0.506 3.306,-2.122 C -0.4,1.249 -0.297,0.872 0,0" /></g><g
           transform="translate(294.2332,83.3189)"
           id="g148"><path
             id="path150"
             style="fill:#343434;fill-opacity:1;fill-rule:nonzero;stroke:none"
             d="m 0,0 c 0.469,0.045 0.601,0.47 0.851,0.746 2.479,2.731 6.255,3.118 9.266,0.938 1.299,-0.94 1.737,-2.292 1.148,-3.542 C 10.671,-3.12 9.453,-3.612 7.854,-3.23 7.078,-3.045 6.316,-2.778 5.53,-2.667 3.163,-2.334 1.746,-3.208 0.944,-5.524 c -0.66,-1.903 -0.857,-3.9 -0.901,-5.899 -0.059,-2.717 -0.034,-5.435 -0.055,-8.152 -0.006,-0.797 -0.007,-1.587 -0.351,-2.348 -0.593,-1.313 -1.574,-1.959 -3.009,-1.948 -1.466,0.011 -2.378,0.625 -2.968,1.984 -0.328,0.755 -0.376,1.542 -0.375,2.347 0.004,5.994 0.004,11.989 0.002,17.984 0,0.803 0.051,1.589 0.329,2.359 0.534,1.476 1.358,2.173 2.756,2.266 1.491,0.098 2.43,-0.533 3.1,-2.089 C -0.38,0.638 -0.48,0.162 0,0" /></g><g
           transform="translate(535.5735,82.9769)"
           id="g152"><path
             id="path154"
             style="fill:#343434;fill-opacity:1;fill-rule:nonzero;stroke:none"
             d="m 0,0 c 0.499,0.568 0.754,0.865 1.016,1.155 2.481,2.738 6.674,3.036 9.467,0.672 1.113,-0.942 1.438,-2.265 0.84,-3.425 -0.602,-1.171 -1.774,-1.663 -3.226,-1.327 -0.7,0.162 -1.379,0.416 -2.083,0.55 -2.602,0.495 -4.147,-0.38 -4.992,-2.896 -0.667,-1.985 -0.858,-4.06 -0.891,-6.141 -0.046,-2.797 0.007,-5.596 -0.062,-8.392 -0.05,-2.053 -0.959,-3.298 -2.478,-3.645 -1.87,-0.426 -3.296,0.392 -3.946,2.215 -0.249,0.699 -0.256,1.409 -0.257,2.127 -0.002,5.914 -0.001,11.829 0,17.744 0,0.799 0.021,1.589 0.28,2.366 0.539,1.611 1.398,2.35 2.894,2.411 1.499,0.06 2.36,-0.555 3.032,-2.18 C -0.291,0.956 -0.216,0.661 0,0" /></g><g
           transform="translate(413.6293,73.0162)"
           id="g156"><path
             id="path158"
             style="fill:#343434;fill-opacity:1;fill-rule:nonzero;stroke:none"
             d="m 0,0 c 0,2.871 -0.007,5.742 0.005,8.613 0.003,0.716 -0.01,1.446 0.122,2.144 0.277,1.457 1.358,2.43 2.753,2.603 1.461,0.181 2.869,-0.637 3.441,-2.035 C 6.594,10.657 6.717,9.955 6.716,9.224 6.708,3.003 6.714,-3.217 6.701,-9.437 6.7,-9.909 6.62,-10.391 6.507,-10.851 c -0.467,-1.901 -1.576,-2.78 -3.374,-2.716 -1.716,0.062 -2.836,1.149 -3.07,3.043 -0.078,0.63 -0.059,1.274 -0.061,1.911 C -0.003,-5.742 0,-2.871 0,0" /></g><g
           transform="translate(420.3205,92.5023)"
           id="g160"><path
             id="path162"
             style="fill:#343434;fill-opacity:1;fill-rule:nonzero;stroke:none"
             d="m 0,0 c -0.114,-1.856 -1.667,-3.225 -3.544,-3.124 -1.968,0.105 -3.229,1.498 -3.137,3.463 0.086,1.841 1.64,3.235 3.506,3.147 C -1.3,3.397 0.113,1.846 0,0" /></g></g></g></g></svg>